<svg width="24" height="24" viewBox="0 0 24 24" fill="none" xmlns="http://www.w3.org/2000/svg">
<mask id="path-1-inside-1_113_661" fill="white">
<path fill-rule="evenodd" clip-rule="evenodd" d="M12 1C8.13404 1 5.00004 4.13401 5.00004 8V15L3.70713 16.2929C3.07717 16.9229 3.52333 18 4.41424 18H19.5858C20.4767 18 20.9229 16.9229 20.2929 16.2929L19 15V8C19 4.13401 15.866 1 12 1Z"/>
</mask>
<path d="M5.00004 15L6.0607 16.0606C6.342 15.7793 6.50004 15.3978 6.50004 15H5.00004ZM3.70713 16.2929L4.76779 17.3536H4.76779L3.70713 16.2929ZM20.2929 16.2929L19.2323 17.3536V17.3536L20.2929 16.2929ZM19 15H17.5C17.5 15.3978 17.6581 15.7794 17.9394 16.0607L19 15ZM6.50004 8C6.50004 4.96243 8.96247 2.5 12 2.5V-0.5C7.30562 -0.5 3.50004 3.30558 3.50004 8H6.50004ZM6.50004 15V8H3.50004V15H6.50004ZM4.76779 17.3536L6.0607 16.0606L3.93937 13.9393L2.64646 15.2322L4.76779 17.3536ZM4.41424 16.5C4.85969 16.5 5.08277 17.0386 4.76779 17.3536L2.64646 15.2322C1.07156 16.8072 2.18698 19.5 4.41424 19.5V16.5ZM19.5858 16.5H4.41424V19.5H19.5858V16.5ZM19.2323 17.3536C18.9173 17.0386 19.1404 16.5 19.5858 16.5V19.5C21.8131 19.5 22.9285 16.8071 21.3536 15.2322L19.2323 17.3536ZM17.9394 16.0607L19.2323 17.3536L21.3536 15.2322L20.0607 13.9394L17.9394 16.0607ZM17.5 8V15H20.5V8H17.5ZM12 2.5C15.0376 2.5 17.5 4.96243 17.5 8H20.5C20.5 3.30558 16.6945 -0.5 12 -0.5V2.5Z" fill="#1E1E1E" mask="url(#path-1-inside-1_113_661)"/>
<mask id="path-3-inside-2_113_661" fill="white">
<path fill-rule="evenodd" clip-rule="evenodd" d="M8 19C8 21.2091 9.79086 23 12 23C14.2091 23 16 21.2091 16 19H14.5C14.5 20.3807 13.3807 21.5 12 21.5C10.6193 21.5 9.5 20.3807 9.5 19H8Z"/>
</mask>
<path d="M8 19V18H7V19H8ZM16 19H17V18H16V19ZM14.5 19V18H13.5V19H14.5ZM9.5 19H10.5V18H9.5V19ZM7 19C7 21.7614 9.23858 24 12 24V22C10.3431 22 9 20.6569 9 19H7ZM12 24C14.7614 24 17 21.7614 17 19H15C15 20.6569 13.6569 22 12 22V24ZM16 18H14.5V20H16V18ZM12 22.5C13.933 22.5 15.5 20.933 15.5 19H13.5C13.5 19.8284 12.8284 20.5 12 20.5V22.5ZM8.5 19C8.5 20.933 10.067 22.5 12 22.5V20.5C11.1716 20.5 10.5 19.8284 10.5 19H8.5ZM9.5 18H8V20H9.5V18Z" fill="#1E1E1E" mask="url(#path-3-inside-2_113_661)"/>
</svg>
